<svg width="18" height="10" viewBox="0 0 18 10" fill="none" xmlns="http://www.w3.org/2000/svg">
<path d="M6.84463 9.57873C6.77313 9.8455 6.49888 10.0038 6.23213 9.93221L5.5887 9.75961C5.32207 9.68809 5.16386 9.41401 5.23526 9.14735L5.64384 7.62157C5.71068 7.37196 5.57566 7.1139 5.33797 7.01253C4.65701 6.72209 4.01378 6.35014 3.42238 5.90483C3.21567 5.74919 2.92419 5.76115 2.74127 5.94416L1.62371 7.06224C1.42846 7.25758 1.11181 7.25762 0.916521 7.06232L0.444625 6.59043C0.249331 6.39513 0.249368 6.07849 0.444707 5.88324L1.56266 4.76581C1.74572 4.58283 1.75762 4.29125 1.60188 4.08451C0.845019 3.07985 0.303951 1.92966 0.0125401 0.706339C-0.0513927 0.437954 0.13 0.17752 0.401416 0.128009L1.05742 0.00834119C1.32941 -0.0412753 1.58842 0.140103 1.65573 0.408266C2.4731 3.6649 5.41981 6.07679 8.93016 6.07679C12.4398 6.07679 15.3873 3.66478 16.2046 0.408026C16.2719 0.139955 16.5308 -0.0414106 16.8027 0.00805493L17.4587 0.127396C17.7302 0.176782 17.9117 0.437199 17.8479 0.705644C17.5567 1.9292 17.0158 3.07967 16.2591 4.08462C16.1034 4.29131 16.1153 4.58278 16.2983 4.76574L17.4158 5.88324C17.611 6.0785 17.611 6.39508 17.4158 6.59034L16.9438 7.06232C16.7485 7.25762 16.4319 7.25758 16.2366 7.06224L15.119 5.94416C14.9361 5.76115 14.6446 5.74919 14.4379 5.90483C13.8465 6.35015 13.2033 6.72211 12.5223 7.01254C12.2846 7.11391 12.1496 7.37194 12.2164 7.62154L12.625 9.14798C12.6964 9.41473 12.5381 9.68885 12.2714 9.76026L11.628 9.93251C11.3613 10.0039 11.0872 9.84564 11.0157 9.57897L10.6065 8.05217C10.5396 7.80266 10.2938 7.64666 10.0374 7.67766C9.30192 7.76657 8.55839 7.76657 7.82292 7.67766C7.56647 7.64666 7.32067 7.80266 7.25379 8.05217L6.84463 9.57873Z" fill="#525558"/>
</svg>
