<svg width="18" height="16" viewBox="0 0 18 16" fill="none" xmlns="http://www.w3.org/2000/svg">
<g clip-path="url(#clip0_1221_29762)">
<path d="M9.0317 9.50225H2.68964V6.84031H9.0317C9.40215 6.84031 9.65974 6.9088 9.789 7.0284C9.91828 7.14801 9.99836 7.36984 9.99836 7.69389V8.6497C9.99836 8.99113 9.91828 9.21296 9.789 9.33257C9.65974 9.45217 9.40215 9.50327 9.0317 9.50327V9.50225ZM9.46679 4.33068H0V15.7145H2.68964V12.0109H7.64636L9.99836 15.7145H13.0102L10.417 11.9935C11.3731 11.8432 11.8024 11.5325 12.1564 11.0203C12.5105 10.5082 12.688 9.68933 12.688 8.59654V7.74295C12.688 7.09485 12.6234 6.58269 12.5105 6.19016C12.3976 5.79761 12.2047 5.45617 11.9307 5.1495C11.6413 4.85917 11.319 4.65473 10.9322 4.51774C10.5454 4.39814 10.062 4.32965 9.46679 4.32965V4.33068Z" fill="#100943"/>
<path d="M15.0741 4.32945C16.2154 4.32945 17.1405 3.36026 17.1405 2.16472C17.1405 0.96918 16.2154 0 15.0741 0C13.9329 0 13.0078 0.96918 13.0078 2.16472C13.0078 3.36026 13.9329 4.32945 15.0741 4.32945Z" fill="#ED143B"/>
</g>
<defs>
<clipPath id="clip0_1221_29762">
<rect width="17.1429" height="15.7143" fill="white"/>
</clipPath>
</defs>
</svg>
